<svg xmlns="http://www.w3.org/2000/svg" viewBox="0 0 400 500" width="400" height="500">

  <!-- Stem -->
  <path d="M200 480 Q195 380 200 300" stroke="#8faa7a" stroke-width="6" fill="none" stroke-linecap="round"/>

  <!-- Left leaf -->
  <path d="M198 390 Q150 360 130 320 Q170 330 198 370" fill="#8faa7a" opacity="0.85"/>

  <!-- Right leaf -->
  <path d="M202 350 Q250 320 270 280 Q230 295 202 340" fill="#a0bb8a" opacity="0.8"/>

  <!-- Small left leaf -->
  <path d="M197 430 Q160 415 148 390 Q175 398 197 420" fill="#8faa7a" opacity="0.7"/>

  <!-- Petal layer 1 (outermost) — dusty rose -->
  <ellipse cx="200" cy="200" rx="38" ry="72" fill="#e8a8b8" opacity="0.6" transform="rotate(0 200 200)"/>
  <ellipse cx="200" cy="200" rx="38" ry="72" fill="#e8a8b8" opacity="0.6" transform="rotate(45 200 200)"/>
  <ellipse cx="200" cy="200" rx="38" ry="72" fill="#e8a8b8" opacity="0.6" transform="rotate(90 200 200)"/>
  <ellipse cx="200" cy="200" rx="38" ry="72" fill="#e8a8b8" opacity="0.6" transform="rotate(135 200 200)"/>
  <ellipse cx="200" cy="200" rx="38" ry="72" fill="#e8a8b8" opacity="0.6" transform="rotate(180 200 200)"/>
  <ellipse cx="200" cy="200" rx="38" ry="72" fill="#e8a8b8" opacity="0.6" transform="rotate(225 200 200)"/>
  <ellipse cx="200" cy="200" rx="38" ry="72" fill="#e8a8b8" opacity="0.6" transform="rotate(270 200 200)"/>
  <ellipse cx="200" cy="200" rx="38" ry="72" fill="#e8a8b8" opacity="0.6" transform="rotate(315 200 200)"/>

  <!-- Petal layer 2 (middle) — terracotta tint -->
  <ellipse cx="200" cy="200" rx="28" ry="58" fill="#e0967a" opacity="0.65" transform="rotate(22 200 200)"/>
  <ellipse cx="200" cy="200" rx="28" ry="58" fill="#e0967a" opacity="0.65" transform="rotate(67 200 200)"/>
  <ellipse cx="200" cy="200" rx="28" ry="58" fill="#e0967a" opacity="0.65" transform="rotate(112 200 200)"/>
  <ellipse cx="200" cy="200" rx="28" ry="58" fill="#e0967a" opacity="0.65" transform="rotate(157 200 200)"/>
  <ellipse cx="200" cy="200" rx="28" ry="58" fill="#e0967a" opacity="0.65" transform="rotate(202 200 200)"/>
  <ellipse cx="200" cy="200" rx="28" ry="58" fill="#e0967a" opacity="0.65" transform="rotate(247 200 200)"/>
  <ellipse cx="200" cy="200" rx="28" ry="58" fill="#e0967a" opacity="0.65" transform="rotate(292 200 200)"/>
  <ellipse cx="200" cy="200" rx="28" ry="58" fill="#e0967a" opacity="0.65" transform="rotate(337 200 200)"/>

  <!-- Petal layer 3 (inner) — cream -->
  <ellipse cx="200" cy="200" rx="18" ry="42" fill="#f5d5c0" opacity="0.9" transform="rotate(0 200 200)"/>
  <ellipse cx="200" cy="200" rx="18" ry="42" fill="#f5d5c0" opacity="0.9" transform="rotate(60 200 200)"/>
  <ellipse cx="200" cy="200" rx="18" ry="42" fill="#f5d5c0" opacity="0.9" transform="rotate(120 200 200)"/>
  <ellipse cx="200" cy="200" rx="18" ry="42" fill="#f5d5c0" opacity="0.9" transform="rotate(180 200 200)"/>
  <ellipse cx="200" cy="200" rx="18" ry="42" fill="#f5d5c0" opacity="0.9" transform="rotate(240 200 200)"/>
  <ellipse cx="200" cy="200" rx="18" ry="42" fill="#f5d5c0" opacity="0.9" transform="rotate(300 200 200)"/>

  <!-- Center circle -->
  <circle cx="200" cy="200" r="36" fill="#c97d5a"/>
  <circle cx="200" cy="200" r="24" fill="#e8a87c"/>
  <circle cx="200" cy="200" r="14" fill="#fdf0e0"/>

  <!-- Center dots -->
  <circle cx="200" cy="190" r="2.5" fill="#c97d5a" opacity="0.7"/>
  <circle cx="207" cy="196" r="2.5" fill="#c97d5a" opacity="0.7"/>
  <circle cx="205" cy="205" r="2.5" fill="#c97d5a" opacity="0.7"/>
  <circle cx="195" cy="207" r="2.5" fill="#c97d5a" opacity="0.7"/>
  <circle cx="192" cy="197" r="2.5" fill="#c97d5a" opacity="0.7"/>

  <!-- Small bud top left -->
  <path d="M100 150 Q95 120 100 100 Q105 120 100 150" fill="#d4789a" opacity="0.7"/>
  <path d="M100 150 Q80 125 72 100 Q95 115 100 145" fill="#e8a8b8" opacity="0.6"/>
  <path d="M100 150 Q120 125 128 100 Q105 115 100 145" fill="#e8a8b8" opacity="0.6"/>
  <circle cx="100" cy="98" r="10" fill="#c97d5a" opacity="0.8"/>
  <path d="M100 155 Q97 200 95 230" stroke="#8faa7a" stroke-width="3" fill="none" stroke-linecap="round"/>
  <path d="M97 185 Q75 175 68 158 Q88 165 97 180" fill="#8faa7a" opacity="0.7"/>

  <!-- Small bud top right -->
  <path d="M300 120 Q295 95 300 75 Q305 95 300 120" fill="#d4789a" opacity="0.65"/>
  <path d="M300 120 Q282 98 275 76 Q296 88 300 115" fill="#e8a8b8" opacity="0.55"/>
  <path d="M300 120 Q318 98 325 76 Q304 88 300 115" fill="#e8a8b8" opacity="0.55"/>
  <circle cx="300" cy="73" r="9" fill="#e0967a" opacity="0.85"/>
  <path d="M300 125 Q303 160 305 185" stroke="#8faa7a" stroke-width="3" fill="none" stroke-linecap="round"/>
  <path d="M303 155 Q325 143 332 125 Q312 135 303 150" fill="#8faa7a" opacity="0.65"/>

</svg>
